<svg width="24" height="24" viewBox="0 0 24 24" fill="none" xmlns="http://www.w3.org/2000/svg">
<path d="M12 2.24727C6.62391 2.24727 2.25 6.62118 2.25 11.9973C2.25 17.3734 6.62391 21.7473 12 21.7473C17.3761 21.7473 21.75 17.3734 21.75 11.9973C21.75 6.62118 17.3761 2.24727 12 2.24727ZM15.75 12.7473H12.75V15.7473C12.75 15.9462 12.671 16.1369 12.5303 16.2776C12.3897 16.4183 12.1989 16.4973 12 16.4973C11.8011 16.4973 11.6103 16.4183 11.4697 16.2776C11.329 16.1369 11.25 15.9462 11.25 15.7473V12.7473H8.25C8.05109 12.7473 7.86032 12.6683 7.71967 12.5276C7.57902 12.3869 7.5 12.1962 7.5 11.9973C7.5 11.7984 7.57902 11.6076 7.71967 11.4669C7.86032 11.3263 8.05109 11.2473 8.25 11.2473H11.25V8.24727C11.25 8.04836 11.329 7.85759 11.4697 7.71694C11.6103 7.57629 11.8011 7.49727 12 7.49727C12.1989 7.49727 12.3897 7.57629 12.5303 7.71694C12.671 7.85759 12.75 8.04836 12.75 8.24727V11.2473H15.75C15.9489 11.2473 16.1397 11.3263 16.2803 11.4669C16.421 11.6076 16.5 11.7984 16.5 11.9973C16.5 12.1962 16.421 12.3869 16.2803 12.5276C16.1397 12.6683 15.9489 12.7473 15.75 12.7473Z" fill="#008C8C"/>
</svg>
