<svg width="24" height="24" viewBox="0 0 24 24" fill="none" xmlns="http://www.w3.org/2000/svg">
<path d="M8.25 20.9965C9.07843 20.9965 9.75 20.3249 9.75 19.4965C9.75 18.6681 9.07843 17.9965 8.25 17.9965C7.42157 17.9965 6.75 18.6681 6.75 19.4965C6.75 20.3249 7.42157 20.9965 8.25 20.9965Z" fill="black"/>
<path d="M18.75 20.9965C19.5784 20.9965 20.25 20.3249 20.25 19.4965C20.25 18.6681 19.5784 17.9965 18.75 17.9965C17.9216 17.9965 17.25 18.6681 17.25 19.4965C17.25 20.3249 17.9216 20.9965 18.75 20.9965Z" fill="black"/>
<path d="M21.4125 5.65808C21.3071 5.5292 21.1744 5.4254 21.0239 5.35421C20.8734 5.28302 20.709 5.24623 20.5425 5.24652H6.27609L5.98875 3.61621C5.95811 3.44255 5.86726 3.28524 5.73216 3.17191C5.59706 3.05858 5.42634 2.99648 5.25 2.99652H2.25C2.05109 2.99652 1.86032 3.07554 1.71967 3.21619C1.57902 3.35684 1.5 3.54761 1.5 3.74652C1.5 3.94543 1.57902 4.1362 1.71967 4.27685C1.86032 4.4175 2.05109 4.49652 2.25 4.49652H4.62094L6.76125 16.6268C6.79189 16.8005 6.88274 16.9578 7.01784 17.0711C7.15295 17.1845 7.32366 17.2466 7.5 17.2465H19.5C19.6989 17.2465 19.8897 17.1675 20.0303 17.0269C20.171 16.8862 20.25 16.6954 20.25 16.4965C20.25 16.2976 20.171 16.1068 20.0303 15.9662C19.8897 15.8255 19.6989 15.7465 19.5 15.7465H8.12906L7.86469 14.2465H19.1925C19.4526 14.2462 19.7046 14.156 19.9058 13.9912C20.1071 13.8265 20.2452 13.5972 20.2969 13.3423L21.6469 6.5923C21.6794 6.42894 21.6753 6.2604 21.6347 6.09884C21.5942 5.93728 21.5183 5.78674 21.4125 5.65808Z" fill="black"/>
</svg>
