<svg width="28" height="28" viewBox="0 0 28 28" fill="none" xmlns="http://www.w3.org/2000/svg">
<path d="M9.625 24.5C10.5915 24.5 11.375 23.7165 11.375 22.75C11.375 21.7835 10.5915 21 9.625 21C8.6585 21 7.875 21.7835 7.875 22.75C7.875 23.7165 8.6585 24.5 9.625 24.5Z" fill="#B3B3B3"/>
<path d="M21.875 24.5C22.8415 24.5 23.625 23.7165 23.625 22.75C23.625 21.7835 22.8415 21 21.875 21C20.9085 21 20.125 21.7835 20.125 22.75C20.125 23.7165 20.9085 24.5 21.875 24.5Z" fill="#B3B3B3"/>
<path d="M24.9812 6.60516C24.8583 6.45479 24.7035 6.33369 24.5279 6.25064C24.3523 6.16758 24.1605 6.12467 23.9662 6.125H7.32211L6.98688 4.22297C6.95113 4.02037 6.84514 3.83684 6.68752 3.70462C6.5299 3.57241 6.33073 3.49996 6.125 3.5H2.625C2.39294 3.5 2.17038 3.59219 2.00628 3.75628C1.84219 3.92038 1.75 4.14294 1.75 4.375C1.75 4.60706 1.84219 4.82962 2.00628 4.99372C2.17038 5.15781 2.39294 5.25 2.625 5.25H5.39109L7.88813 19.402C7.92387 19.6046 8.02986 19.7882 8.18748 19.9204C8.3451 20.0526 8.54427 20.125 8.75 20.125H22.75C22.9821 20.125 23.2046 20.0328 23.3687 19.8687C23.5328 19.7046 23.625 19.4821 23.625 19.25C23.625 19.0179 23.5328 18.7954 23.3687 18.6313C23.2046 18.4672 22.9821 18.375 22.75 18.375H9.48391L9.17547 16.625H22.3913C22.6947 16.6246 22.9887 16.5194 23.2235 16.3272C23.4583 16.1349 23.6194 15.8675 23.6797 15.5701L25.2547 7.69508C25.2926 7.50449 25.2878 7.30786 25.2405 7.11937C25.1932 6.93089 25.1047 6.75526 24.9812 6.60516Z" fill="#B3B3B3"/>
<ellipse cx="24" cy="4" rx="4" ry="4" fill="#008C8C"/>
</svg>
