<svg width="12" height="12" viewBox="0 0 12 12" fill="none" xmlns="http://www.w3.org/2000/svg">
<path d="M6 1.12659C3.31195 1.12659 1.125 3.31354 1.125 6.00159C1.125 8.68963 3.31195 10.8766 6 10.8766C8.68805 10.8766 10.875 8.68963 10.875 6.00159C10.875 3.31354 8.68805 1.12659 6 1.12659ZM7.76508 7.23651C7.80136 7.27098 7.83038 7.31238 7.85042 7.35824C7.87046 7.40411 7.88112 7.45352 7.88176 7.50357C7.8824 7.55362 7.87301 7.6033 7.85415 7.64966C7.8353 7.69603 7.80735 7.73815 7.77195 7.77354C7.73656 7.80893 7.69444 7.83688 7.64807 7.85574C7.60171 7.8746 7.55204 7.88399 7.50199 7.88334C7.45194 7.8827 7.40252 7.87205 7.35666 7.85201C7.31079 7.83197 7.2694 7.80295 7.23492 7.76666L6 6.53198L4.76508 7.76666C4.69418 7.83402 4.59977 7.87102 4.50199 7.86977C4.4042 7.86852 4.31077 7.82911 4.24162 7.75996C4.17247 7.69081 4.13307 7.59738 4.13182 7.4996C4.13057 7.40181 4.16756 7.30741 4.23492 7.23651L5.46961 6.00159L4.23492 4.76666C4.16756 4.69577 4.13057 4.60136 4.13182 4.50357C4.13307 4.40579 4.17247 4.31236 4.24162 4.24321C4.31077 4.17406 4.4042 4.13466 4.50199 4.13341C4.59977 4.13215 4.69418 4.16915 4.76508 4.23651L6 5.4712L7.23492 4.23651C7.30582 4.16915 7.40023 4.13215 7.49801 4.13341C7.5958 4.13466 7.68922 4.17406 7.75838 4.24321C7.82753 4.31236 7.86693 4.40579 7.86818 4.50357C7.86943 4.60136 7.83243 4.69577 7.76508 4.76666L6.53039 6.00159L7.76508 7.23651Z" fill="white"/>
</svg>
