<svg width="25" height="24" viewBox="0 0 25 24" fill="none" xmlns="http://www.w3.org/2000/svg">
<path d="M12.7605 4.74709C12.6907 4.68033 12.5978 4.64307 12.5012 4.64307C12.4047 4.64307 12.3118 4.68033 12.242 4.74709L3.61234 12.991C3.57569 13.0261 3.54653 13.0682 3.52663 13.1148C3.50673 13.1615 3.4965 13.2117 3.49655 13.2624L3.49515 20.9996C3.49515 21.3974 3.65318 21.7789 3.93449 22.0602C4.21579 22.3416 4.59732 22.4996 4.99515 22.4996H9.49984C9.69875 22.4996 9.88951 22.4206 10.0302 22.2799C10.1708 22.1393 10.2498 21.9485 10.2498 21.7496V15.3746C10.2498 15.2751 10.2893 15.1797 10.3597 15.1094C10.43 15.0391 10.5254 14.9996 10.6248 14.9996H14.3748C14.4743 14.9996 14.5697 15.0391 14.64 15.1094C14.7103 15.1797 14.7498 15.2751 14.7498 15.3746V21.7496C14.7498 21.9485 14.8289 22.1393 14.9695 22.2799C15.1102 22.4206 15.3009 22.4996 15.4998 22.4996H20.0027C20.4005 22.4996 20.782 22.3416 21.0633 22.0602C21.3446 21.7789 21.5027 21.3974 21.5027 20.9996V13.2624C21.5027 13.2117 21.4925 13.1615 21.4726 13.1148C21.4527 13.0682 21.4235 13.0261 21.3869 12.991L12.7605 4.74709Z" fill="#008C8C"/>
<path d="M23.5113 11.4461L20.005 8.09168V3.00153C20.005 2.80261 19.926 2.61185 19.7854 2.4712C19.6447 2.33054 19.4539 2.25153 19.255 2.25153H17.005C16.8061 2.25153 16.6153 2.33054 16.4747 2.4712C16.334 2.61185 16.255 2.80261 16.255 3.00153V4.50153L13.54 1.90559C13.286 1.64871 12.9081 1.50153 12.4999 1.50153C12.093 1.50153 11.7161 1.64871 11.4621 1.90606L1.49174 11.4451C1.20018 11.7264 1.16362 12.189 1.42893 12.4937C1.49555 12.5706 1.57713 12.6332 1.66869 12.6775C1.76026 12.7219 1.85989 12.7472 1.96154 12.7519C2.06319 12.7565 2.16472 12.7404 2.25995 12.7046C2.35518 12.6687 2.44213 12.6139 2.51549 12.5434L12.2421 3.24903C12.3118 3.18227 12.4047 3.14501 12.5013 3.14501C12.5979 3.14501 12.6907 3.18227 12.7605 3.24903L22.488 12.5434C22.6313 12.6808 22.8232 12.7558 23.0217 12.7519C23.2202 12.7481 23.4091 12.6657 23.5469 12.5228C23.8347 12.2247 23.8108 11.7325 23.5113 11.4461Z" fill="#008C8C"/>
</svg>
