<svg width="25" height="24" viewBox="0 0 25 24" fill="none" xmlns="http://www.w3.org/2000/svg">
<path d="M16.0924 3.0289C15.1802 2.04405 13.9062 1.50171 12.4999 1.50171C11.0862 1.50171 9.80787 2.04077 8.8999 3.01952C7.98209 4.00905 7.5349 5.3539 7.6399 6.80609C7.84803 9.67109 10.0282 12.0017 12.4999 12.0017C14.9716 12.0017 17.148 9.67155 17.3594 6.80702C17.4658 5.36796 17.0158 4.02593 16.0924 3.0289ZM20.7499 22.5017H4.2499C4.03393 22.5045 3.82005 22.4592 3.62382 22.3689C3.42759 22.2787 3.25395 22.1458 3.11553 21.98C2.81084 21.6158 2.68803 21.1184 2.77896 20.6155C3.17459 18.4208 4.40928 16.5772 6.3499 15.283C8.07397 14.1341 10.2579 13.5017 12.4999 13.5017C14.7419 13.5017 16.9258 14.1345 18.6499 15.283C20.5905 16.5767 21.8252 18.4203 22.2208 20.615C22.3118 21.118 22.189 21.6153 21.8843 21.9795C21.7459 22.1454 21.5723 22.2784 21.376 22.3687C21.1798 22.459 20.9659 22.5045 20.7499 22.5017Z" fill="#B3B3B3"/>
</svg>
