<svg width="25" height="24" viewBox="0 0 25 24" fill="none" xmlns="http://www.w3.org/2000/svg">
<path d="M12.4999 2.25537C7.12385 2.25537 2.74994 6.62975 2.74994 12.0054C2.74994 17.3894 7.11588 21.7554 12.4999 21.7554C17.876 21.7554 22.2499 17.3815 22.2499 12.0054C22.2499 6.62084 17.8845 2.25537 12.4999 2.25537ZM12.4999 16.9272C11.3313 16.9272 10.2106 16.463 9.38425 15.6367C8.55792 14.8104 8.09369 13.6896 8.09369 12.521C8.09369 11.3524 8.55792 10.2316 9.38425 9.40531C10.2106 8.57898 11.3313 8.11475 12.4999 8.11475H12.6973L12.0359 7.45381C11.9128 7.33073 11.8437 7.1638 11.8437 6.98975C11.8437 6.81569 11.9128 6.64876 12.0359 6.52568C12.159 6.40261 12.3259 6.33346 12.4999 6.33346C12.674 6.33346 12.8409 6.40261 12.964 6.52568L14.839 8.40068C14.8999 8.46162 14.9483 8.53397 14.9813 8.6136C15.0143 8.69322 15.0312 8.77856 15.0312 8.86475C15.0312 8.95093 15.0143 9.03627 14.9813 9.1159C14.9483 9.19552 14.8999 9.26787 14.839 9.32881L12.964 11.2038C12.8409 11.3269 12.674 11.396 12.4999 11.396C12.3259 11.396 12.159 11.3269 12.0359 11.2038C11.9128 11.0807 11.8437 10.9138 11.8437 10.7397C11.8437 10.5657 11.9128 10.3988 12.0359 10.2757L12.8796 9.43193C12.7681 9.42725 12.6406 9.42725 12.4999 9.42725C11.8881 9.42725 11.2899 9.60869 10.7811 9.94864C10.2724 10.2886 9.87585 10.7718 9.64169 11.3371C9.40753 11.9024 9.34626 12.5244 9.46564 13.1246C9.58501 13.7247 9.87966 14.2759 10.3123 14.7086C10.745 15.1413 11.2963 15.4359 11.8964 15.5553C12.4965 15.6747 13.1186 15.6134 13.6839 15.3792C14.2492 15.1451 14.7324 14.7486 15.0723 14.2398C15.4122 13.731 15.5937 13.1329 15.5937 12.521C15.5937 12.3469 15.6628 12.18 15.7859 12.057C15.909 11.9339 16.0759 11.8647 16.2499 11.8647C16.424 11.8647 16.5909 11.9339 16.714 12.057C16.8371 12.18 16.9062 12.3469 16.9062 12.521C16.9048 13.6892 16.4402 14.8091 15.6141 15.6352C14.7881 16.4612 13.6681 16.9259 12.4999 16.9272Z" fill="#B3B3B3"/>
</svg>
