<svg width="24" height="24" viewBox="0 0 24 24" fill="none" xmlns="http://www.w3.org/2000/svg">
<path d="M12 2.24788C6.62391 2.24788 2.25 6.62179 2.25 11.9979C2.25 17.374 6.62391 21.7479 12 21.7479C17.3761 21.7479 21.75 17.374 21.75 11.9979C21.75 6.62179 17.3761 2.24788 12 2.24788ZM15.75 12.7479H8.25C8.05109 12.7479 7.86032 12.6689 7.71967 12.5282C7.57902 12.3876 7.5 12.1968 7.5 11.9979C7.5 11.799 7.57902 11.6082 7.71967 11.4676C7.86032 11.3269 8.05109 11.2479 8.25 11.2479H15.75C15.9489 11.2479 16.1397 11.3269 16.2803 11.4676C16.421 11.6082 16.5 11.799 16.5 11.9979C16.5 12.1968 16.421 12.3876 16.2803 12.5282C16.1397 12.6689 15.9489 12.7479 15.75 12.7479Z" fill="#B3B3B3"/>
</svg>
