<svg width="160" height="160" viewBox="0 0 160 160" fill="none" xmlns="http://www.w3.org/2000/svg">
<path d="M111.741 69.9733C115.026 69.9823 118.28 69.3395 121.315 68.0822C124.35 66.8248 127.106 64.9779 129.422 62.6483L153.484 38.6014C155.388 36.6983 155.563 33.6014 153.75 31.6045C153.295 31.1028 152.743 30.6988 152.127 30.417C151.511 30.1352 150.844 29.9814 150.167 29.965C149.49 29.9487 148.817 30.07 148.188 30.3218C147.559 30.5735 146.988 30.9504 146.509 31.4295L125.063 52.8608C124.342 53.58 123.366 53.984 122.349 53.984C121.331 53.984 120.355 53.58 119.634 52.8608C118.138 51.367 118.219 48.842 119.713 47.3483L141.066 25.9951C141.544 25.5165 141.921 24.9456 142.172 24.3171C142.424 23.6886 142.545 23.0156 142.529 22.3389C142.512 21.6622 142.359 20.9958 142.077 20.3802C141.796 19.7646 141.392 19.2126 140.891 18.7576C139.986 17.9369 138.806 17.4853 137.584 17.492C136.2 17.493 134.872 18.0438 133.894 19.0233L112.559 40.3545C111.839 41.0737 110.863 41.4777 109.845 41.4777C108.828 41.4777 107.851 41.0737 107.131 40.3545C105.638 38.8608 105.716 36.3358 107.209 34.842L128.563 13.4951C129.041 13.0165 129.418 12.4456 129.669 11.8171C129.921 11.1886 130.042 10.5156 130.025 9.8389C130.009 9.16218 129.855 8.49583 129.574 7.88024C129.292 7.26464 128.889 6.71263 128.388 6.25764C127.483 5.4369 126.303 4.98529 125.081 4.99202C123.697 4.99366 122.37 5.54434 121.391 6.52327L97.3438 30.5701C95.014 32.8869 93.1669 35.6429 91.9096 38.6784C90.6522 41.714 90.0096 44.9689 90.0188 48.2545V50.8264C90.0194 51.4839 89.8902 52.1351 89.6387 52.7427C89.3872 53.3502 89.0183 53.9022 88.5532 54.367L77.4251 65.4983C77.309 65.6145 77.1711 65.7067 77.0194 65.7696C76.8676 65.8325 76.705 65.8649 76.5407 65.8649C76.3764 65.8649 76.2138 65.8325 76.062 65.7696C75.9103 65.7067 75.7724 65.6145 75.6563 65.4983L21.5064 11.3451C20.5718 10.4095 19.3046 9.8822 17.9821 9.87869C16.6596 9.87517 15.3897 10.3957 14.4501 11.3264C9.71573 16.017 7.18761 22.6389 7.18761 30.4733C7.15636 43.4108 13.9564 58.2858 24.9345 69.2483L51.6376 95.9514C55.4329 99.739 60.5757 101.866 65.9376 101.867C67.647 101.868 69.3494 101.649 71.0032 101.217C71.4185 101.108 71.8458 101.053 72.2751 101.051C73.5303 101.052 74.7391 101.526 75.6595 102.38L79.2188 105.667C80.1368 106.605 80.6526 107.864 80.6563 109.176V110.908C80.6472 114.843 82.1939 118.623 84.9595 121.423L113.1 150.039L113.128 150.07C116.252 153.193 120.488 154.947 124.904 154.947C129.321 154.947 133.557 153.192 136.68 150.069C139.803 146.945 141.557 142.709 141.557 138.292C141.556 133.876 139.802 129.64 136.678 126.517L94.497 84.3358C94.3807 84.2197 94.2885 84.0818 94.2256 83.9301C94.1627 83.7783 94.1304 83.6157 94.1304 83.4514C94.1304 83.2871 94.1627 83.1245 94.2256 82.9727C94.2885 82.821 94.3807 82.6831 94.497 82.567L105.625 71.4389C106.09 70.9742 106.641 70.6055 107.248 70.354C107.855 70.1025 108.506 69.9732 109.163 69.9733H111.741Z" fill="#008C8C"/>
<path d="M65.9376 111.85C57.9324 111.834 50.2565 108.662 44.5751 103.022L40.2438 98.6908C39.7752 98.2233 39.1402 97.9607 38.4782 97.9607C37.8162 97.9607 37.1813 98.2233 36.7126 98.6908L10.1501 125.116C5.41572 129.85 3.72509 136.819 6.06884 143.644C6.20002 144.028 6.35554 144.404 6.53447 144.769C9.68759 151.225 15.8063 154.975 22.5001 154.975C24.8021 154.981 27.0823 154.53 29.2087 153.648C31.335 152.766 33.2653 151.471 34.8876 149.838L70.3126 114.244C70.4617 114.092 70.5759 113.909 70.6471 113.708C70.7183 113.507 70.745 113.294 70.7251 113.081V113C70.7112 112.805 70.658 112.615 70.5687 112.442C70.4793 112.268 70.3558 112.114 70.2054 111.989C70.055 111.865 69.8809 111.772 69.6936 111.716C69.5064 111.66 69.3098 111.643 69.1157 111.666C68.0603 111.783 66.9995 111.844 65.9376 111.85Z" fill="#49516F"/>
</svg>
