<svg width="25" height="24" viewBox="0 0 25 24" fill="none" xmlns="http://www.w3.org/2000/svg">
<path d="M21.9073 19.7515L17.4968 15.341C18.5586 13.9274 19.1318 12.2068 19.1299 10.4388C19.1299 5.92287 15.4558 2.24881 10.9399 2.24881C6.42397 2.24881 2.74991 5.92287 2.74991 10.4388C2.74991 14.9548 6.42397 18.6288 10.9399 18.6288C12.7079 18.6307 14.4285 18.0575 15.8421 16.9957L20.2526 21.4062C20.4758 21.6057 20.767 21.7123 21.0664 21.7039C21.3657 21.6955 21.6505 21.5729 21.8622 21.3611C22.074 21.1494 22.1966 20.8646 22.205 20.5653C22.2134 20.2659 22.1068 19.9747 21.9073 19.7515ZM5.08991 10.4388C5.08991 9.28179 5.43301 8.15075 6.07581 7.18873C6.71862 6.2267 7.63226 5.47689 8.70121 5.03412C9.77016 4.59134 10.9464 4.47549 12.0812 4.70122C13.216 4.92694 14.2583 5.4841 15.0765 6.30224C15.8946 7.12037 16.4518 8.16274 16.6775 9.29753C16.9032 10.4323 16.7874 11.6086 16.3446 12.6775C15.9018 13.7465 15.152 14.6601 14.19 15.3029C13.228 15.9457 12.0969 16.2888 10.9399 16.2888C9.38896 16.287 7.90208 15.67 6.80539 14.5733C5.70871 13.4766 5.09177 11.9898 5.08991 10.4388Z" fill="#B3B3B3"/>
</svg>
