<svg width="16" height="16" viewBox="0 0 16 16" fill="none" xmlns="http://www.w3.org/2000/svg">
<path d="M12.3127 14.9985C12.2074 14.9989 12.1047 14.9661 12.0192 14.9047L8.00015 11.991L3.98109 14.9047C3.89522 14.967 3.79178 15.0004 3.68571 15C3.57964 14.9996 3.47644 14.9655 3.39103 14.9026C3.30562 14.8397 3.24242 14.7513 3.21058 14.6501C3.17874 14.5489 3.1799 14.4402 3.2139 14.3397L4.7814 9.69693L0.718901 6.911C0.630904 6.85072 0.56449 6.76388 0.529361 6.66317C0.494232 6.56246 0.492229 6.45315 0.523646 6.35122C0.555063 6.24929 0.618253 6.16008 0.703982 6.09662C0.789712 6.03316 0.893489 5.99878 1.00015 5.99849H6.01203L7.52453 1.34381C7.55711 1.24331 7.62069 1.15572 7.70613 1.0936C7.79158 1.03148 7.89451 0.998018 8.00015 0.998018C8.1058 0.998018 8.20872 1.03148 8.29417 1.0936C8.37962 1.15572 8.44319 1.24331 8.47578 1.34381L9.98828 6.00006H15.0002C15.1069 6 15.211 6.03415 15.2969 6.09749C15.3829 6.16082 15.4464 6.25003 15.478 6.35204C15.5096 6.45405 15.5077 6.5635 15.4726 6.66436C15.4375 6.76523 15.3711 6.8522 15.283 6.91256L11.2189 9.69693L12.7855 14.3385C12.8108 14.4136 12.818 14.4937 12.8063 14.5722C12.7946 14.6507 12.7644 14.7252 12.7182 14.7897C12.672 14.8542 12.6112 14.9067 12.5406 14.943C12.4701 14.9793 12.392 14.9984 12.3127 14.9985Z" fill="#F0C324"/>
</svg>
