<svg width="20" height="20" viewBox="0 0 20 20" fill="none" xmlns="http://www.w3.org/2000/svg">
<path d="M16.875 3.75058H13.125V2.81308C13.125 2.39868 12.9604 2.00125 12.6674 1.70822C12.3743 1.4152 11.9769 1.25058 11.5625 1.25058H8.4375C8.0231 1.25058 7.62567 1.4152 7.33265 1.70822C7.03962 2.00125 6.875 2.39868 6.875 2.81308V3.75058H3.125C2.95924 3.75058 2.80027 3.81642 2.68306 3.93363C2.56585 4.05084 2.5 4.20982 2.5 4.37558C2.5 4.54134 2.56585 4.70031 2.68306 4.81752C2.80027 4.93473 2.95924 5.00058 3.125 5.00058H3.78906L4.53125 16.9115C4.58672 17.9603 5.39062 18.7506 6.40625 18.7506H13.5937C14.6145 18.7506 15.4023 17.9779 15.4687 16.9146L16.2109 5.00058H16.875C17.0408 5.00058 17.1997 4.93473 17.3169 4.81752C17.4342 4.70031 17.5 4.54134 17.5 4.37558C17.5 4.20982 17.4342 4.05084 17.3169 3.93363C17.1997 3.81642 17.0408 3.75058 16.875 3.75058ZM7.52227 16.2506H7.5C7.33803 16.2507 7.18234 16.1879 7.06575 16.0755C6.94916 15.963 6.88077 15.8097 6.875 15.6478L6.5625 6.89784C6.55659 6.73208 6.61678 6.57076 6.72981 6.44938C6.84285 6.32799 6.99947 6.25648 7.16523 6.25058C7.33099 6.24467 7.49231 6.30485 7.6137 6.41789C7.73508 6.53092 7.80659 6.68755 7.8125 6.85331L8.125 15.6033C8.12798 15.6854 8.11474 15.7673 8.08605 15.8442C8.05736 15.9212 8.01378 15.9918 7.95781 16.0519C7.90183 16.112 7.83455 16.1605 7.75981 16.1946C7.68508 16.2287 7.60436 16.2477 7.52227 16.2506ZM10.625 15.6256C10.625 15.7913 10.5592 15.9503 10.4419 16.0675C10.3247 16.1847 10.1658 16.2506 10 16.2506C9.83424 16.2506 9.67527 16.1847 9.55806 16.0675C9.44085 15.9503 9.375 15.7913 9.375 15.6256V6.87558C9.375 6.70982 9.44085 6.55084 9.55806 6.43363C9.67527 6.31642 9.83424 6.25058 10 6.25058C10.1658 6.25058 10.3247 6.31642 10.4419 6.43363C10.5592 6.55084 10.625 6.70982 10.625 6.87558V15.6256ZM11.875 3.75058H8.125V2.81308C8.12453 2.77191 8.13229 2.73106 8.14783 2.69293C8.16337 2.6548 8.18637 2.62017 8.21548 2.59106C8.24459 2.56194 8.27923 2.53894 8.31736 2.5234C8.35548 2.50787 8.39633 2.5001 8.4375 2.50058H11.5625C11.6037 2.5001 11.6445 2.50787 11.6826 2.5234C11.7208 2.53894 11.7554 2.56194 11.7845 2.59106C11.8136 2.62017 11.8366 2.6548 11.8522 2.69293C11.8677 2.73106 11.8755 2.77191 11.875 2.81308V3.75058ZM13.125 15.6478C13.1192 15.8097 13.0508 15.963 12.9343 16.0755C12.8177 16.1879 12.662 16.2507 12.5 16.2506H12.4773C12.3953 16.2477 12.3146 16.2286 12.2399 16.1945C12.1652 16.1604 12.098 16.1119 12.0421 16.0518C11.9861 15.9916 11.9426 15.9211 11.9139 15.8442C11.8852 15.7672 11.872 15.6854 11.875 15.6033L12.1875 6.85331C12.1904 6.77123 12.2095 6.69054 12.2436 6.61583C12.2777 6.54112 12.3262 6.47386 12.3863 6.41789C12.4464 6.36192 12.5169 6.31834 12.5939 6.28963C12.6708 6.26092 12.7527 6.24765 12.8348 6.25058C12.9168 6.2535 12.9975 6.27256 13.0722 6.30667C13.147 6.34078 13.2142 6.38927 13.2702 6.44938C13.3262 6.50948 13.3697 6.58002 13.3984 6.65697C13.4272 6.73392 13.4404 6.81577 13.4375 6.89784L13.125 15.6478Z" fill="#B3B3B3"/>
</svg>
